<svg aria-roledescription="er" viewBox="0 0 760.0179443359375 585" style="max-width: 760.018px; background-color: white;" xmlns:xlink="http://www.w3.org/1999/xlink" xmlns="http://www.w3.org/2000/svg" width="100%" id="mermaid-0"><style>#mermaid-0{font-family:"trebuchet ms",verdana,arial,sans-serif;font-size:16px;fill:#000000;}#mermaid-0 .error-icon{fill:#552222;}#mermaid-0 .error-text{fill:#552222;stroke:#552222;}#mermaid-0 .edge-thickness-normal{stroke-width:2px;}#mermaid-0 .edge-thickness-thick{stroke-width:3.5px;}#mermaid-0 .edge-pattern-solid{stroke-dasharray:0;}#mermaid-0 .edge-pattern-dashed{stroke-dasharray:3;}#mermaid-0 .edge-pattern-dotted{stroke-dasharray:2;}#mermaid-0 .marker{fill:#000000;stroke:#000000;}#mermaid-0 .marker.cross{stroke:#000000;}#mermaid-0 svg{font-family:"trebuchet ms",verdana,arial,sans-serif;font-size:16px;}#mermaid-0 .entityBox{fill:#cde498;stroke:#13540c;}#mermaid-0 .attributeBoxOdd{fill:#ffffff;stroke:#13540c;}#mermaid-0 .attributeBoxEven{fill:#f2f2f2;stroke:#13540c;}#mermaid-0 .relationshipLabelBox{fill:hsl(78.1578947368, 58.4615384615%, 84.5098039216%);opacity:0.7;background-color:hsl(78.1578947368, 58.4615384615%, 84.5098039216%);}#mermaid-0 .relationshipLabelBox rect{opacity:0.5;}#mermaid-0 .relationshipLine{stroke:#000000;}#mermaid-0 .entityTitleText{text-anchor:middle;font-size:18px;fill:#000000;}#mermaid-0 :root{--mermaid-font-family:"trebuchet ms",verdana,arial,sans-serif;}</style><g/><defs><marker orient="auto" markerHeight="18" markerWidth="18" refY="9" refX="0" id="ONLY_ONE_START"><path d="M9,0 L9,18 M15,0 L15,18" fill="none" stroke="gray"/></marker></defs><defs><marker orient="auto" markerHeight="18" markerWidth="18" refY="9" refX="18" id="ONLY_ONE_END"><path d="M3,0 L3,18 M9,0 L9,18" fill="none" stroke="gray"/></marker></defs><defs><marker orient="auto" markerHeight="18" markerWidth="30" refY="9" refX="0" id="ZERO_OR_ONE_START"><circle r="6" cy="9" cx="21" fill="white" stroke="gray"/><path d="M9,0 L9,18" fill="none" stroke="gray"/></marker></defs><defs><marker orient="auto" markerHeight="18" markerWidth="30" refY="9" refX="30" id="ZERO_OR_ONE_END"><circle r="6" cy="9" cx="9" fill="white" stroke="gray"/><path d="M21,0 L21,18" fill="none" stroke="gray"/></marker></defs><defs><marker orient="auto" markerHeight="36" markerWidth="45" refY="18" refX="18" id="ONE_OR_MORE_START"><path d="M0,18 Q 18,0 36,18 Q 18,36 0,18 M42,9 L42,27" fill="none" stroke="gray"/></marker></defs><defs><marker orient="auto" markerHeight="36" markerWidth="45" refY="18" refX="27" id="ONE_OR_MORE_END"><path d="M3,9 L3,27 M9,18 Q27,0 45,18 Q27,36 9,18" fill="none" stroke="gray"/></marker></defs><defs><marker orient="auto" markerHeight="36" markerWidth="57" refY="18" refX="18" id="ZERO_OR_MORE_START"><circle r="6" cy="18" cx="48" fill="white" stroke="gray"/><path d="M0,18 Q18,0 36,18 Q18,36 0,18" fill="none" stroke="gray"/></marker></defs><defs><marker orient="auto" markerHeight="36" markerWidth="57" refY="18" refX="39" id="ZERO_OR_MORE_END"><circle r="6" cy="18" cx="9" fill="white" stroke="gray"/><path d="M21,18 Q39,0 57,18 Q39,36 21,18" fill="none" stroke="gray"/></marker></defs><path style="stroke: gray; fill: none;" marker-start="url(#ZERO_OR_ONE_START)" marker-end="url(#ONLY_ONE_END)" d="M152.73825073242188,399L152.73825073242188,407.3333333333333C152.73825073242188,415.6666666666667,152.73825073242188,432.3333333333333,152.73825073242188,449C152.73825073242188,465.6666666666667,152.73825073242188,482.3333333333333,152.73825073242188,490.6666666666667L152.73825073242188,499" class="er relationshipLine"/><path style="stroke: gray; fill: none;" marker-start="url(#ZERO_OR_MORE_START)" marker-end="url(#ONLY_ONE_END)" d="M102.73825073242188,128L102.73825073242188,136.33333333333334C102.73825073242188,144.66666666666666,102.73825073242188,161.33333333333334,105.81328148272938,178C108.88831223303687,194.66666666666666,115.03837373365188,211.33333333333334,118.11340448395937,219.66666666666666L121.18843523426689,228" class="er relationshipLine"/><path style="stroke: gray; fill: none;" marker-start="url(#ZERO_OR_MORE_START)" marker-end="url(#ZERO_OR_ONE_END)" d="M550.9530029296875,108.6208259766183L527.7294794718424,120.18402164718192C504.5059560139974,131.74721731774554,458.0589090983073,154.87360865887277,407.41624450683594,180.7885708258108C356.77357991536456,206.70353299274885,301.935297648112,235.40706598549772,274.51615651448566,249.75883248187213L247.09701538085938,264.11059897824657" class="er relationshipLine"/><path style="stroke: gray; fill: none;" marker-start="url(#ZERO_OR_MORE_START)" marker-end="url(#ZERO_OR_ONE_END)" d="M641.398935171274,117.5L646.2466915815304,127.58333333333333C651.0944479917869,137.66666666666666,660.7899608122997,157.83333333333334,665.637717222556,179.75C670.4854736328125,201.66666666666666,670.4854736328125,225.33333333333334,670.4854736328125,237.16666666666666L670.4854736328125,249" class="er relationshipLine"/><g transform="translate(95.55035400390625,499 )" id="entity-TrailStatus-b13ce1b4-971d-4a02-89f7-5a71f227a080"><rect height="66" width="114.37579345703125" y="0" x="0" class="er entityBox"/><text style="dominant-baseline: middle; text-anchor: middle; font-size: 12px;" transform="translate(57.187896728515625,12)" y="0" x="0" id="text-entity-TrailStatus-b13ce1b4-971d-4a02-89f7-5a71f227a080" class="er entityLabel">TrailStatus</text><rect height="21" width="57.187896728515625" y="24" x="0" class="er attributeBoxOdd"/><text style="dominant-baseline: middle; font-size: 10.2px;" transform="translate(5,34.5)" y="0" x="0" id="text-entity-TrailStatus-b13ce1b4-971d-4a02-89f7-5a71f227a080-attr-1-type" class="er entityLabel">ACTIVE</text><rect height="21" width="57.187896728515625" y="24" x="57.187896728515625" class="er attributeBoxOdd"/><text style="dominant-baseline: middle; font-size: 10.2px;" transform="translate(62.187896728515625,34.5)" y="0" x="0" id="text-entity-TrailStatus-b13ce1b4-971d-4a02-89f7-5a71f227a080-attr-1-name" class="er entityLabel">ACTIVE</text><rect height="21" width="57.187896728515625" y="45" x="0" class="er attributeBoxEven"/><text style="dominant-baseline: middle; font-size: 10.2px;" transform="translate(5,55.5)" y="0" x="0" id="text-entity-TrailStatus-b13ce1b4-971d-4a02-89f7-5a71f227a080-attr-2-type" class="er entityLabel">INACTIVE</text><rect height="21" width="57.187896728515625" y="45" x="57.187896728515625" class="er attributeBoxEven"/><text style="dominant-baseline: middle; font-size: 10.2px;" transform="translate(62.187896728515625,55.5)" y="0" x="0" id="text-entity-TrailStatus-b13ce1b4-971d-4a02-89f7-5a71f227a080-attr-2-name" class="er entityLabel">INACTIVE</text></g><g transform="translate(58.379486083984375,228 )" id="entity-trails-292ef6db-2147-4707-85e0-0505faf2a5ad"><rect height="171" width="188.717529296875" y="0" x="0" class="er entityBox"/><text style="dominant-baseline: middle; text-anchor: middle; font-size: 12px;" transform="translate(94.3587646484375,12)" y="0" x="0" id="text-entity-trails-292ef6db-2147-4707-85e0-0505faf2a5ad" class="er entityLabel">trails</text><rect height="21" width="58.3125" y="24" x="0" class="er attributeBoxOdd"/><text style="dominant-baseline: middle; font-size: 10.2px;" transform="translate(5,34.5)" y="0" x="0" id="text-entity-trails-292ef6db-2147-4707-85e0-0505faf2a5ad-attr-1-type" class="er entityLabel">String</text><rect height="21" width="61.156829833984375" y="24" x="58.3125" class="er attributeBoxOdd"/><text style="dominant-baseline: middle; font-size: 10.2px;" transform="translate(63.3125,34.5)" y="0" x="0" id="text-entity-trails-292ef6db-2147-4707-85e0-0505faf2a5ad-attr-1-name" class="er entityLabel">id</text><rect height="21" width="23.79498291015625" y="24" x="119.46932983398438" class="er attributeBoxOdd"/><text style="dominant-baseline: middle; font-size: 10.2px;" transform="translate(124.46932983398438,34.5)" y="0" x="0" id="text-entity-trails-292ef6db-2147-4707-85e0-0505faf2a5ad-attr-1-key" class="er entityLabel">PK</text><rect height="21" width="45.453216552734375" y="24" x="143.26431274414062" class="er attributeBoxOdd"/><text style="dominant-baseline: middle; font-size: 10.2px;" transform="translate(148.26431274414062,34.5)" y="0" x="0" id="text-entity-trails-292ef6db-2147-4707-85e0-0505faf2a5ad-attr-1-comment" class="er entityLabel"/><rect height="21" width="58.3125" y="45" x="0" class="er attributeBoxEven"/><text style="dominant-baseline: middle; font-size: 10.2px;" transform="translate(5,55.5)" y="0" x="0" id="text-entity-trails-292ef6db-2147-4707-85e0-0505faf2a5ad-attr-2-type" class="er entityLabel">String</text><rect height="21" width="61.156829833984375" y="45" x="58.3125" class="er attributeBoxEven"/><text style="dominant-baseline: middle; font-size: 10.2px;" transform="translate(63.3125,55.5)" y="0" x="0" id="text-entity-trails-292ef6db-2147-4707-85e0-0505faf2a5ad-attr-2-name" class="er entityLabel">tittle</text><rect height="21" width="23.79498291015625" y="45" x="119.46932983398438" class="er attributeBoxEven"/><text style="dominant-baseline: middle; font-size: 10.2px;" transform="translate(124.46932983398438,55.5)" y="0" x="0" id="text-entity-trails-292ef6db-2147-4707-85e0-0505faf2a5ad-attr-2-key" class="er entityLabel"/><rect height="21" width="45.453216552734375" y="45" x="143.26431274414062" class="er attributeBoxEven"/><text style="dominant-baseline: middle; font-size: 10.2px;" transform="translate(148.26431274414062,55.5)" y="0" x="0" id="text-entity-trails-292ef6db-2147-4707-85e0-0505faf2a5ad-attr-2-comment" class="er entityLabel"/><rect height="21" width="58.3125" y="66" x="0" class="er attributeBoxOdd"/><text style="dominant-baseline: middle; font-size: 10.2px;" transform="translate(5,76.5)" y="0" x="0" id="text-entity-trails-292ef6db-2147-4707-85e0-0505faf2a5ad-attr-3-type" class="er entityLabel">String</text><rect height="21" width="61.156829833984375" y="66" x="58.3125" class="er attributeBoxOdd"/><text style="dominant-baseline: middle; font-size: 10.2px;" transform="translate(63.3125,76.5)" y="0" x="0" id="text-entity-trails-292ef6db-2147-4707-85e0-0505faf2a5ad-attr-3-name" class="er entityLabel">description</text><rect height="21" width="23.79498291015625" y="66" x="119.46932983398438" class="er attributeBoxOdd"/><text style="dominant-baseline: middle; font-size: 10.2px;" transform="translate(124.46932983398438,76.5)" y="0" x="0" id="text-entity-trails-292ef6db-2147-4707-85e0-0505faf2a5ad-attr-3-key" class="er entityLabel"/><rect height="21" width="45.453216552734375" y="66" x="143.26431274414062" class="er attributeBoxOdd"/><text style="dominant-baseline: middle; font-size: 10.2px;" transform="translate(148.26431274414062,76.5)" y="0" x="0" id="text-entity-trails-292ef6db-2147-4707-85e0-0505faf2a5ad-attr-3-comment" class="er entityLabel">nullable</text><rect height="21" width="58.3125" y="87" x="0" class="er attributeBoxEven"/><text style="dominant-baseline: middle; font-size: 10.2px;" transform="translate(5,97.5)" y="0" x="0" id="text-entity-trails-292ef6db-2147-4707-85e0-0505faf2a5ad-attr-4-type" class="er entityLabel">String</text><rect height="21" width="61.156829833984375" y="87" x="58.3125" class="er attributeBoxEven"/><text style="dominant-baseline: middle; font-size: 10.2px;" transform="translate(63.3125,97.5)" y="0" x="0" id="text-entity-trails-292ef6db-2147-4707-85e0-0505faf2a5ad-attr-4-name" class="er entityLabel">slug</text><rect height="21" width="23.79498291015625" y="87" x="119.46932983398438" class="er attributeBoxEven"/><text style="dominant-baseline: middle; font-size: 10.2px;" transform="translate(124.46932983398438,97.5)" y="0" x="0" id="text-entity-trails-292ef6db-2147-4707-85e0-0505faf2a5ad-attr-4-key" class="er entityLabel"/><rect height="21" width="45.453216552734375" y="87" x="143.26431274414062" class="er attributeBoxEven"/><text style="dominant-baseline: middle; font-size: 10.2px;" transform="translate(148.26431274414062,97.5)" y="0" x="0" id="text-entity-trails-292ef6db-2147-4707-85e0-0505faf2a5ad-attr-4-comment" class="er entityLabel"/><rect height="21" width="58.3125" y="108" x="0" class="er attributeBoxOdd"/><text style="dominant-baseline: middle; font-size: 10.2px;" transform="translate(5,118.5)" y="0" x="0" id="text-entity-trails-292ef6db-2147-4707-85e0-0505faf2a5ad-attr-5-type" class="er entityLabel">TrailStatus</text><rect height="21" width="61.156829833984375" y="108" x="58.3125" class="er attributeBoxOdd"/><text style="dominant-baseline: middle; font-size: 10.2px;" transform="translate(63.3125,118.5)" y="0" x="0" id="text-entity-trails-292ef6db-2147-4707-85e0-0505faf2a5ad-attr-5-name" class="er entityLabel">status</text><rect height="21" width="23.79498291015625" y="108" x="119.46932983398438" class="er attributeBoxOdd"/><text style="dominant-baseline: middle; font-size: 10.2px;" transform="translate(124.46932983398438,118.5)" y="0" x="0" id="text-entity-trails-292ef6db-2147-4707-85e0-0505faf2a5ad-attr-5-key" class="er entityLabel"/><rect height="21" width="45.453216552734375" y="108" x="143.26431274414062" class="er attributeBoxOdd"/><text style="dominant-baseline: middle; font-size: 10.2px;" transform="translate(148.26431274414062,118.5)" y="0" x="0" id="text-entity-trails-292ef6db-2147-4707-85e0-0505faf2a5ad-attr-5-comment" class="er entityLabel"/><rect height="21" width="58.3125" y="129" x="0" class="er attributeBoxEven"/><text style="dominant-baseline: middle; font-size: 10.2px;" transform="translate(5,139.5)" y="0" x="0" id="text-entity-trails-292ef6db-2147-4707-85e0-0505faf2a5ad-attr-6-type" class="er entityLabel">DateTime</text><rect height="21" width="61.156829833984375" y="129" x="58.3125" class="er attributeBoxEven"/><text style="dominant-baseline: middle; font-size: 10.2px;" transform="translate(63.3125,139.5)" y="0" x="0" id="text-entity-trails-292ef6db-2147-4707-85e0-0505faf2a5ad-attr-6-name" class="er entityLabel">created_at</text><rect height="21" width="23.79498291015625" y="129" x="119.46932983398438" class="er attributeBoxEven"/><text style="dominant-baseline: middle; font-size: 10.2px;" transform="translate(124.46932983398438,139.5)" y="0" x="0" id="text-entity-trails-292ef6db-2147-4707-85e0-0505faf2a5ad-attr-6-key" class="er entityLabel"/><rect height="21" width="45.453216552734375" y="129" x="143.26431274414062" class="er attributeBoxEven"/><text style="dominant-baseline: middle; font-size: 10.2px;" transform="translate(148.26431274414062,139.5)" y="0" x="0" id="text-entity-trails-292ef6db-2147-4707-85e0-0505faf2a5ad-attr-6-comment" class="er entityLabel"/><rect height="21" width="58.3125" y="150" x="0" class="er attributeBoxOdd"/><text style="dominant-baseline: middle; font-size: 10.2px;" transform="translate(5,160.5)" y="0" x="0" id="text-entity-trails-292ef6db-2147-4707-85e0-0505faf2a5ad-attr-7-type" class="er entityLabel">DateTime</text><rect height="21" width="61.156829833984375" y="150" x="58.3125" class="er attributeBoxOdd"/><text style="dominant-baseline: middle; font-size: 10.2px;" transform="translate(63.3125,160.5)" y="0" x="0" id="text-entity-trails-292ef6db-2147-4707-85e0-0505faf2a5ad-attr-7-name" class="er entityLabel">updated_at</text><rect height="21" width="23.79498291015625" y="150" x="119.46932983398438" class="er attributeBoxOdd"/><text style="dominant-baseline: middle; font-size: 10.2px;" transform="translate(124.46932983398438,160.5)" y="0" x="0" id="text-entity-trails-292ef6db-2147-4707-85e0-0505faf2a5ad-attr-7-key" class="er entityLabel"/><rect height="21" width="45.453216552734375" y="150" x="143.26431274414062" class="er attributeBoxOdd"/><text style="dominant-baseline: middle; font-size: 10.2px;" transform="translate(148.26431274414062,160.5)" y="0" x="0" id="text-entity-trails-292ef6db-2147-4707-85e0-0505faf2a5ad-attr-7-comment" class="er entityLabel"/></g><g transform="translate(20,20 )" id="entity-Course-9bc53416-c269-4a43-909b-c83ba97a75b4"><rect height="108" width="165.47650146484375" y="0" x="0" class="er entityBox"/><text style="dominant-baseline: middle; text-anchor: middle; font-size: 12px;" transform="translate(82.73825073242188,12)" y="0" x="0" id="text-entity-Course-9bc53416-c269-4a43-909b-c83ba97a75b4" class="er entityLabel">Course</text><rect height="21" width="36.947052001953125" y="24" x="0" class="er attributeBoxOdd"/><text style="dominant-baseline: middle; font-size: 10.2px;" transform="translate(5,34.5)" y="0" x="0" id="text-entity-Course-9bc53416-c269-4a43-909b-c83ba97a75b4-attr-1-type" class="er entityLabel">String</text><rect height="21" width="59.28125" y="24" x="36.947052001953125" class="er attributeBoxOdd"/><text style="dominant-baseline: middle; font-size: 10.2px;" transform="translate(41.947052001953125,34.5)" y="0" x="0" id="text-entity-Course-9bc53416-c269-4a43-909b-c83ba97a75b4-attr-1-name" class="er entityLabel">id</text><rect height="21" width="23.79498291015625" y="24" x="96.22830200195312" class="er attributeBoxOdd"/><text style="dominant-baseline: middle; font-size: 10.2px;" transform="translate(101.22830200195312,34.5)" y="0" x="0" id="text-entity-Course-9bc53416-c269-4a43-909b-c83ba97a75b4-attr-1-key" class="er entityLabel">PK</text><rect height="21" width="45.453216552734375" y="24" x="120.02328491210938" class="er attributeBoxOdd"/><text style="dominant-baseline: middle; font-size: 10.2px;" transform="translate(125.02328491210938,34.5)" y="0" x="0" id="text-entity-Course-9bc53416-c269-4a43-909b-c83ba97a75b4-attr-1-comment" class="er entityLabel"/><rect height="21" width="36.947052001953125" y="45" x="0" class="er attributeBoxEven"/><text style="dominant-baseline: middle; font-size: 10.2px;" transform="translate(5,55.5)" y="0" x="0" id="text-entity-Course-9bc53416-c269-4a43-909b-c83ba97a75b4-attr-2-type" class="er entityLabel">String</text><rect height="21" width="59.28125" y="45" x="36.947052001953125" class="er attributeBoxEven"/><text style="dominant-baseline: middle; font-size: 10.2px;" transform="translate(41.947052001953125,55.5)" y="0" x="0" id="text-entity-Course-9bc53416-c269-4a43-909b-c83ba97a75b4-attr-2-name" class="er entityLabel">tittle</text><rect height="21" width="23.79498291015625" y="45" x="96.22830200195312" class="er attributeBoxEven"/><text style="dominant-baseline: middle; font-size: 10.2px;" transform="translate(101.22830200195312,55.5)" y="0" x="0" id="text-entity-Course-9bc53416-c269-4a43-909b-c83ba97a75b4-attr-2-key" class="er entityLabel"/><rect height="21" width="45.453216552734375" y="45" x="120.02328491210938" class="er attributeBoxEven"/><text style="dominant-baseline: middle; font-size: 10.2px;" transform="translate(125.02328491210938,55.5)" y="0" x="0" id="text-entity-Course-9bc53416-c269-4a43-909b-c83ba97a75b4-attr-2-comment" class="er entityLabel"/><rect height="21" width="36.947052001953125" y="66" x="0" class="er attributeBoxOdd"/><text style="dominant-baseline: middle; font-size: 10.2px;" transform="translate(5,76.5)" y="0" x="0" id="text-entity-Course-9bc53416-c269-4a43-909b-c83ba97a75b4-attr-3-type" class="er entityLabel">String</text><rect height="21" width="59.28125" y="66" x="36.947052001953125" class="er attributeBoxOdd"/><text style="dominant-baseline: middle; font-size: 10.2px;" transform="translate(41.947052001953125,76.5)" y="0" x="0" id="text-entity-Course-9bc53416-c269-4a43-909b-c83ba97a75b4-attr-3-name" class="er entityLabel">description</text><rect height="21" width="23.79498291015625" y="66" x="96.22830200195312" class="er attributeBoxOdd"/><text style="dominant-baseline: middle; font-size: 10.2px;" transform="translate(101.22830200195312,76.5)" y="0" x="0" id="text-entity-Course-9bc53416-c269-4a43-909b-c83ba97a75b4-attr-3-key" class="er entityLabel"/><rect height="21" width="45.453216552734375" y="66" x="120.02328491210938" class="er attributeBoxOdd"/><text style="dominant-baseline: middle; font-size: 10.2px;" transform="translate(125.02328491210938,76.5)" y="0" x="0" id="text-entity-Course-9bc53416-c269-4a43-909b-c83ba97a75b4-attr-3-comment" class="er entityLabel">nullable</text><rect height="21" width="36.947052001953125" y="87" x="0" class="er attributeBoxEven"/><text style="dominant-baseline: middle; font-size: 10.2px;" transform="translate(5,97.5)" y="0" x="0" id="text-entity-Course-9bc53416-c269-4a43-909b-c83ba97a75b4-attr-4-type" class="er entityLabel">String</text><rect height="21" width="59.28125" y="87" x="36.947052001953125" class="er attributeBoxEven"/><text style="dominant-baseline: middle; font-size: 10.2px;" transform="translate(41.947052001953125,97.5)" y="0" x="0" id="text-entity-Course-9bc53416-c269-4a43-909b-c83ba97a75b4-attr-4-name" class="er entityLabel">slug</text><rect height="21" width="23.79498291015625" y="87" x="96.22830200195312" class="er attributeBoxEven"/><text style="dominant-baseline: middle; font-size: 10.2px;" transform="translate(101.22830200195312,97.5)" y="0" x="0" id="text-entity-Course-9bc53416-c269-4a43-909b-c83ba97a75b4-attr-4-key" class="er entityLabel"/><rect height="21" width="45.453216552734375" y="87" x="120.02328491210938" class="er attributeBoxEven"/><text style="dominant-baseline: middle; font-size: 10.2px;" transform="translate(125.02328491210938,97.5)" y="0" x="0" id="text-entity-Course-9bc53416-c269-4a43-909b-c83ba97a75b4-attr-4-comment" class="er entityLabel"/></g><g transform="translate(285.47650146484375,20 )" id="entity-Lesson-7c8198cb-4e67-47b7-8dcc-87150fcb7e3b"><rect height="108" width="165.47650146484375" y="0" x="0" class="er entityBox"/><text style="dominant-baseline: middle; text-anchor: middle; font-size: 12px;" transform="translate(82.73825073242188,12)" y="0" x="0" id="text-entity-Lesson-7c8198cb-4e67-47b7-8dcc-87150fcb7e3b" class="er entityLabel">Lesson</text><rect height="21" width="36.947052001953125" y="24" x="0" class="er attributeBoxOdd"/><text style="dominant-baseline: middle; font-size: 10.2px;" transform="translate(5,34.5)" y="0" x="0" id="text-entity-Lesson-7c8198cb-4e67-47b7-8dcc-87150fcb7e3b-attr-1-type" class="er entityLabel">String</text><rect height="21" width="59.28125" y="24" x="36.947052001953125" class="er attributeBoxOdd"/><text style="dominant-baseline: middle; font-size: 10.2px;" transform="translate(41.947052001953125,34.5)" y="0" x="0" id="text-entity-Lesson-7c8198cb-4e67-47b7-8dcc-87150fcb7e3b-attr-1-name" class="er entityLabel">id</text><rect height="21" width="23.79498291015625" y="24" x="96.22830200195312" class="er attributeBoxOdd"/><text style="dominant-baseline: middle; font-size: 10.2px;" transform="translate(101.22830200195312,34.5)" y="0" x="0" id="text-entity-Lesson-7c8198cb-4e67-47b7-8dcc-87150fcb7e3b-attr-1-key" class="er entityLabel">PK</text><rect height="21" width="45.453216552734375" y="24" x="120.02328491210938" class="er attributeBoxOdd"/><text style="dominant-baseline: middle; font-size: 10.2px;" transform="translate(125.02328491210938,34.5)" y="0" x="0" id="text-entity-Lesson-7c8198cb-4e67-47b7-8dcc-87150fcb7e3b-attr-1-comment" class="er entityLabel"/><rect height="21" width="36.947052001953125" y="45" x="0" class="er attributeBoxEven"/><text style="dominant-baseline: middle; font-size: 10.2px;" transform="translate(5,55.5)" y="0" x="0" id="text-entity-Lesson-7c8198cb-4e67-47b7-8dcc-87150fcb7e3b-attr-2-type" class="er entityLabel">String</text><rect height="21" width="59.28125" y="45" x="36.947052001953125" class="er attributeBoxEven"/><text style="dominant-baseline: middle; font-size: 10.2px;" transform="translate(41.947052001953125,55.5)" y="0" x="0" id="text-entity-Lesson-7c8198cb-4e67-47b7-8dcc-87150fcb7e3b-attr-2-name" class="er entityLabel">tittle</text><rect height="21" width="23.79498291015625" y="45" x="96.22830200195312" class="er attributeBoxEven"/><text style="dominant-baseline: middle; font-size: 10.2px;" transform="translate(101.22830200195312,55.5)" y="0" x="0" id="text-entity-Lesson-7c8198cb-4e67-47b7-8dcc-87150fcb7e3b-attr-2-key" class="er entityLabel"/><rect height="21" width="45.453216552734375" y="45" x="120.02328491210938" class="er attributeBoxEven"/><text style="dominant-baseline: middle; font-size: 10.2px;" transform="translate(125.02328491210938,55.5)" y="0" x="0" id="text-entity-Lesson-7c8198cb-4e67-47b7-8dcc-87150fcb7e3b-attr-2-comment" class="er entityLabel"/><rect height="21" width="36.947052001953125" y="66" x="0" class="er attributeBoxOdd"/><text style="dominant-baseline: middle; font-size: 10.2px;" transform="translate(5,76.5)" y="0" x="0" id="text-entity-Lesson-7c8198cb-4e67-47b7-8dcc-87150fcb7e3b-attr-3-type" class="er entityLabel">String</text><rect height="21" width="59.28125" y="66" x="36.947052001953125" class="er attributeBoxOdd"/><text style="dominant-baseline: middle; font-size: 10.2px;" transform="translate(41.947052001953125,76.5)" y="0" x="0" id="text-entity-Lesson-7c8198cb-4e67-47b7-8dcc-87150fcb7e3b-attr-3-name" class="er entityLabel">description</text><rect height="21" width="23.79498291015625" y="66" x="96.22830200195312" class="er attributeBoxOdd"/><text style="dominant-baseline: middle; font-size: 10.2px;" transform="translate(101.22830200195312,76.5)" y="0" x="0" id="text-entity-Lesson-7c8198cb-4e67-47b7-8dcc-87150fcb7e3b-attr-3-key" class="er entityLabel"/><rect height="21" width="45.453216552734375" y="66" x="120.02328491210938" class="er attributeBoxOdd"/><text style="dominant-baseline: middle; font-size: 10.2px;" transform="translate(125.02328491210938,76.5)" y="0" x="0" id="text-entity-Lesson-7c8198cb-4e67-47b7-8dcc-87150fcb7e3b-attr-3-comment" class="er entityLabel">nullable</text><rect height="21" width="36.947052001953125" y="87" x="0" class="er attributeBoxEven"/><text style="dominant-baseline: middle; font-size: 10.2px;" transform="translate(5,97.5)" y="0" x="0" id="text-entity-Lesson-7c8198cb-4e67-47b7-8dcc-87150fcb7e3b-attr-4-type" class="er entityLabel">String</text><rect height="21" width="59.28125" y="87" x="36.947052001953125" class="er attributeBoxEven"/><text style="dominant-baseline: middle; font-size: 10.2px;" transform="translate(41.947052001953125,97.5)" y="0" x="0" id="text-entity-Lesson-7c8198cb-4e67-47b7-8dcc-87150fcb7e3b-attr-4-name" class="er entityLabel">slug</text><rect height="21" width="23.79498291015625" y="87" x="96.22830200195312" class="er attributeBoxEven"/><text style="dominant-baseline: middle; font-size: 10.2px;" transform="translate(101.22830200195312,97.5)" y="0" x="0" id="text-entity-Lesson-7c8198cb-4e67-47b7-8dcc-87150fcb7e3b-attr-4-key" class="er entityLabel"/><rect height="21" width="45.453216552734375" y="87" x="120.02328491210938" class="er attributeBoxEven"/><text style="dominant-baseline: middle; font-size: 10.2px;" transform="translate(125.02328491210938,97.5)" y="0" x="0" id="text-entity-Lesson-7c8198cb-4e67-47b7-8dcc-87150fcb7e3b-attr-4-comment" class="er entityLabel"/></g><g transform="translate(600.9530029296875,249 )" id="entity-students-b9678a17-98d3-4143-91f8-d45ede884f4a"><rect height="129" width="139.06494140625" y="0" x="0" class="er entityBox"/><text style="dominant-baseline: middle; text-anchor: middle; font-size: 12px;" transform="translate(69.532470703125,12)" y="0" x="0" id="text-entity-students-b9678a17-98d3-4143-91f8-d45ede884f4a" class="er entityLabel">students</text><rect height="21" width="54.113128662109375" y="24" x="0" class="er attributeBoxOdd"/><text style="dominant-baseline: middle; font-size: 10.2px;" transform="translate(5,34.5)" y="0" x="0" id="text-entity-students-b9678a17-98d3-4143-91f8-d45ede884f4a-attr-1-type" class="er entityLabel">String</text><rect height="21" width="61.156829833984375" y="24" x="54.113128662109375" class="er attributeBoxOdd"/><text style="dominant-baseline: middle; font-size: 10.2px;" transform="translate(59.113128662109375,34.5)" y="0" x="0" id="text-entity-students-b9678a17-98d3-4143-91f8-d45ede884f4a-attr-1-name" class="er entityLabel">id</text><rect height="21" width="23.79498291015625" y="24" x="115.26995849609375" class="er attributeBoxOdd"/><text style="dominant-baseline: middle; font-size: 10.2px;" transform="translate(120.26995849609375,34.5)" y="0" x="0" id="text-entity-students-b9678a17-98d3-4143-91f8-d45ede884f4a-attr-1-key" class="er entityLabel">PK</text><rect height="21" width="54.113128662109375" y="45" x="0" class="er attributeBoxEven"/><text style="dominant-baseline: middle; font-size: 10.2px;" transform="translate(5,55.5)" y="0" x="0" id="text-entity-students-b9678a17-98d3-4143-91f8-d45ede884f4a-attr-2-type" class="er entityLabel">String</text><rect height="21" width="61.156829833984375" y="45" x="54.113128662109375" class="er attributeBoxEven"/><text style="dominant-baseline: middle; font-size: 10.2px;" transform="translate(59.113128662109375,55.5)" y="0" x="0" id="text-entity-students-b9678a17-98d3-4143-91f8-d45ede884f4a-attr-2-name" class="er entityLabel">name</text><rect height="21" width="23.79498291015625" y="45" x="115.26995849609375" class="er attributeBoxEven"/><text style="dominant-baseline: middle; font-size: 10.2px;" transform="translate(120.26995849609375,55.5)" y="0" x="0" id="text-entity-students-b9678a17-98d3-4143-91f8-d45ede884f4a-attr-2-key" class="er entityLabel"/><rect height="21" width="54.113128662109375" y="66" x="0" class="er attributeBoxOdd"/><text style="dominant-baseline: middle; font-size: 10.2px;" transform="translate(5,76.5)" y="0" x="0" id="text-entity-students-b9678a17-98d3-4143-91f8-d45ede884f4a-attr-3-type" class="er entityLabel">String</text><rect height="21" width="61.156829833984375" y="66" x="54.113128662109375" class="er attributeBoxOdd"/><text style="dominant-baseline: middle; font-size: 10.2px;" transform="translate(59.113128662109375,76.5)" y="0" x="0" id="text-entity-students-b9678a17-98d3-4143-91f8-d45ede884f4a-attr-3-name" class="er entityLabel">email</text><rect height="21" width="23.79498291015625" y="66" x="115.26995849609375" class="er attributeBoxOdd"/><text style="dominant-baseline: middle; font-size: 10.2px;" transform="translate(120.26995849609375,76.5)" y="0" x="0" id="text-entity-students-b9678a17-98d3-4143-91f8-d45ede884f4a-attr-3-key" class="er entityLabel"/><rect height="21" width="54.113128662109375" y="87" x="0" class="er attributeBoxEven"/><text style="dominant-baseline: middle; font-size: 10.2px;" transform="translate(5,97.5)" y="0" x="0" id="text-entity-students-b9678a17-98d3-4143-91f8-d45ede884f4a-attr-4-type" class="er entityLabel">DateTime</text><rect height="21" width="61.156829833984375" y="87" x="54.113128662109375" class="er attributeBoxEven"/><text style="dominant-baseline: middle; font-size: 10.2px;" transform="translate(59.113128662109375,97.5)" y="0" x="0" id="text-entity-students-b9678a17-98d3-4143-91f8-d45ede884f4a-attr-4-name" class="er entityLabel">created_at</text><rect height="21" width="23.79498291015625" y="87" x="115.26995849609375" class="er attributeBoxEven"/><text style="dominant-baseline: middle; font-size: 10.2px;" transform="translate(120.26995849609375,97.5)" y="0" x="0" id="text-entity-students-b9678a17-98d3-4143-91f8-d45ede884f4a-attr-4-key" class="er entityLabel"/><rect height="21" width="54.113128662109375" y="108" x="0" class="er attributeBoxOdd"/><text style="dominant-baseline: middle; font-size: 10.2px;" transform="translate(5,118.5)" y="0" x="0" id="text-entity-students-b9678a17-98d3-4143-91f8-d45ede884f4a-attr-5-type" class="er entityLabel">DateTime</text><rect height="21" width="61.156829833984375" y="108" x="54.113128662109375" class="er attributeBoxOdd"/><text style="dominant-baseline: middle; font-size: 10.2px;" transform="translate(59.113128662109375,118.5)" y="0" x="0" id="text-entity-students-b9678a17-98d3-4143-91f8-d45ede884f4a-attr-5-name" class="er entityLabel">updated_at</text><rect height="21" width="23.79498291015625" y="108" x="115.26995849609375" class="er attributeBoxOdd"/><text style="dominant-baseline: middle; font-size: 10.2px;" transform="translate(120.26995849609375,118.5)" y="0" x="0" id="text-entity-students-b9678a17-98d3-4143-91f8-d45ede884f4a-attr-5-key" class="er entityLabel"/></g><g transform="translate(550.9530029296875,30.5 )" id="entity-enrollments-455688a9-9eca-4e7b-8f5a-d724a2aece6a"><rect height="87" width="139.06494140625" y="0" x="0" class="er entityBox"/><text style="dominant-baseline: middle; text-anchor: middle; font-size: 12px;" transform="translate(69.532470703125,12)" y="0" x="0" id="text-entity-enrollments-455688a9-9eca-4e7b-8f5a-d724a2aece6a" class="er entityLabel">enrollments</text><rect height="21" width="54.113128662109375" y="24" x="0" class="er attributeBoxOdd"/><text style="dominant-baseline: middle; font-size: 10.2px;" transform="translate(5,34.5)" y="0" x="0" id="text-entity-enrollments-455688a9-9eca-4e7b-8f5a-d724a2aece6a-attr-1-type" class="er entityLabel">String</text><rect height="21" width="61.156829833984375" y="24" x="54.113128662109375" class="er attributeBoxOdd"/><text style="dominant-baseline: middle; font-size: 10.2px;" transform="translate(59.113128662109375,34.5)" y="0" x="0" id="text-entity-enrollments-455688a9-9eca-4e7b-8f5a-d724a2aece6a-attr-1-name" class="er entityLabel">id</text><rect height="21" width="23.79498291015625" y="24" x="115.26995849609375" class="er attributeBoxOdd"/><text style="dominant-baseline: middle; font-size: 10.2px;" transform="translate(120.26995849609375,34.5)" y="0" x="0" id="text-entity-enrollments-455688a9-9eca-4e7b-8f5a-d724a2aece6a-attr-1-key" class="er entityLabel">PK</text><rect height="21" width="54.113128662109375" y="45" x="0" class="er attributeBoxEven"/><text style="dominant-baseline: middle; font-size: 10.2px;" transform="translate(5,55.5)" y="0" x="0" id="text-entity-enrollments-455688a9-9eca-4e7b-8f5a-d724a2aece6a-attr-2-type" class="er entityLabel">DateTime</text><rect height="21" width="61.156829833984375" y="45" x="54.113128662109375" class="er attributeBoxEven"/><text style="dominant-baseline: middle; font-size: 10.2px;" transform="translate(59.113128662109375,55.5)" y="0" x="0" id="text-entity-enrollments-455688a9-9eca-4e7b-8f5a-d724a2aece6a-attr-2-name" class="er entityLabel">created_at</text><rect height="21" width="23.79498291015625" y="45" x="115.26995849609375" class="er attributeBoxEven"/><text style="dominant-baseline: middle; font-size: 10.2px;" transform="translate(120.26995849609375,55.5)" y="0" x="0" id="text-entity-enrollments-455688a9-9eca-4e7b-8f5a-d724a2aece6a-attr-2-key" class="er entityLabel"/><rect height="21" width="54.113128662109375" y="66" x="0" class="er attributeBoxOdd"/><text style="dominant-baseline: middle; font-size: 10.2px;" transform="translate(5,76.5)" y="0" x="0" id="text-entity-enrollments-455688a9-9eca-4e7b-8f5a-d724a2aece6a-attr-3-type" class="er entityLabel">DateTime</text><rect height="21" width="61.156829833984375" y="66" x="54.113128662109375" class="er attributeBoxOdd"/><text style="dominant-baseline: middle; font-size: 10.2px;" transform="translate(59.113128662109375,76.5)" y="0" x="0" id="text-entity-enrollments-455688a9-9eca-4e7b-8f5a-d724a2aece6a-attr-3-name" class="er entityLabel">updated_at</text><rect height="21" width="23.79498291015625" y="66" x="115.26995849609375" class="er attributeBoxOdd"/><text style="dominant-baseline: middle; font-size: 10.2px;" transform="translate(120.26995849609375,76.5)" y="0" x="0" id="text-entity-enrollments-455688a9-9eca-4e7b-8f5a-d724a2aece6a-attr-3-key" class="er entityLabel"/></g><rect height="14" width="65.375" y="442" x="120.05075073242188" class="er relationshipLabelBox"/><text style="text-anchor: middle; dominant-baseline: middle; font-size: 12px;" y="449" x="152.73825073242188" id="rel1" class="er relationshipLabel">enum:status</text><rect height="14" width="19.34375" y="172.08448791503906" x="96.34588623046875" class="er relationshipLabelBox"/><text style="text-anchor: middle; dominant-baseline: middle; font-size: 12px;" y="179.08448791503906" x="106.01776123046875" id="rel2" class="er relationshipLabel">trail</text><rect height="14" width="22.890625" y="178.35409545898438" x="387.06243896484375" class="er relationshipLabelBox"/><text style="text-anchor: middle; dominant-baseline: middle; font-size: 12px;" y="185.35409545898438" x="398.50775146484375" id="rel3" class="er relationshipLabel">Trail</text><rect height="14" width="42.033203125" y="174.02066040039062" x="644.8961181640625" class="er relationshipLabelBox"/><text style="text-anchor: middle; dominant-baseline: middle; font-size: 12px;" y="181.02066040039062" x="665.9127197265625" id="rel4" class="er relationshipLabel">Student</text></svg>